<mxfile host="app.diagrams.net" modified="2020-06-30T13:50:57.320Z" agent="5.0 (Windows NT 10.0; Win64; x64) AppleWebKit/537.36 (KHTML, like Gecko) Chrome/83.0.4103.116 Safari/537.36" etag="-uaLLdQGNzrOwwuuZYQy" version="13.3.0" type="github">
  <diagram id="S-YloSkZGE2IO1pw8tLN" name="Page-1">
    <mxGraphModel dx="494" dy="261" grid="0" gridSize="10" guides="1" tooltips="1" connect="1" arrows="1" fold="1" page="1" pageScale="1" pageWidth="827" pageHeight="1169" math="0" shadow="0">
      <root>
        <mxCell id="0" />
        <mxCell id="1" parent="0" />
        <mxCell id="s1_Y5GCPixIF_iL36CFM-1" value="" style="endArrow=classic;html=1;" parent="1" edge="1">
          <mxGeometry width="50" height="50" relative="1" as="geometry">
            <mxPoint x="30" y="240" as="sourcePoint" />
            <mxPoint x="340" y="240" as="targetPoint" />
          </mxGeometry>
        </mxCell>
        <mxCell id="s1_Y5GCPixIF_iL36CFM-2" value="" style="endArrow=classic;html=1;" parent="1" edge="1">
          <mxGeometry width="50" height="50" relative="1" as="geometry">
            <mxPoint x="40" y="240" as="sourcePoint" />
            <mxPoint x="40" y="200" as="targetPoint" />
          </mxGeometry>
        </mxCell>
        <mxCell id="s1_Y5GCPixIF_iL36CFM-3" value="" style="endArrow=classic;html=1;" parent="1" edge="1">
          <mxGeometry width="50" height="50" relative="1" as="geometry">
            <mxPoint x="70" y="240" as="sourcePoint" />
            <mxPoint x="70" y="220" as="targetPoint" />
          </mxGeometry>
        </mxCell>
        <mxCell id="s1_Y5GCPixIF_iL36CFM-5" value="" style="endArrow=classic;html=1;" parent="1" edge="1">
          <mxGeometry width="50" height="50" relative="1" as="geometry">
            <mxPoint x="100" y="240" as="sourcePoint" />
            <mxPoint x="100" y="220" as="targetPoint" />
          </mxGeometry>
        </mxCell>
        <mxCell id="s1_Y5GCPixIF_iL36CFM-6" value="" style="endArrow=classic;html=1;" parent="1" edge="1">
          <mxGeometry width="50" height="50" relative="1" as="geometry">
            <mxPoint x="130" y="240" as="sourcePoint" />
            <mxPoint x="130" y="220" as="targetPoint" />
          </mxGeometry>
        </mxCell>
        <mxCell id="s1_Y5GCPixIF_iL36CFM-7" value="" style="endArrow=classic;html=1;" parent="1" edge="1">
          <mxGeometry width="50" height="50" relative="1" as="geometry">
            <mxPoint x="160" y="240" as="sourcePoint" />
            <mxPoint x="160" y="220" as="targetPoint" />
          </mxGeometry>
        </mxCell>
        <mxCell id="s1_Y5GCPixIF_iL36CFM-8" value="" style="endArrow=classic;html=1;" parent="1" edge="1">
          <mxGeometry width="50" height="50" relative="1" as="geometry">
            <mxPoint x="190" y="240" as="sourcePoint" />
            <mxPoint x="190" y="220" as="targetPoint" />
          </mxGeometry>
        </mxCell>
        <mxCell id="s1_Y5GCPixIF_iL36CFM-9" value="" style="endArrow=classic;html=1;" parent="1" edge="1">
          <mxGeometry width="50" height="50" relative="1" as="geometry">
            <mxPoint x="220" y="240" as="sourcePoint" />
            <mxPoint x="220" y="220" as="targetPoint" />
          </mxGeometry>
        </mxCell>
        <mxCell id="s1_Y5GCPixIF_iL36CFM-10" value="" style="endArrow=classic;html=1;" parent="1" edge="1">
          <mxGeometry width="50" height="50" relative="1" as="geometry">
            <mxPoint x="250" y="240" as="sourcePoint" />
            <mxPoint x="250" y="220" as="targetPoint" />
          </mxGeometry>
        </mxCell>
        <mxCell id="s1_Y5GCPixIF_iL36CFM-11" value="" style="endArrow=classic;html=1;" parent="1" edge="1">
          <mxGeometry width="50" height="50" relative="1" as="geometry">
            <mxPoint x="280" y="240" as="sourcePoint" />
            <mxPoint x="280" y="220" as="targetPoint" />
          </mxGeometry>
        </mxCell>
        <mxCell id="s1_Y5GCPixIF_iL36CFM-12" value="" style="endArrow=classic;html=1;" parent="1" edge="1">
          <mxGeometry width="50" height="50" relative="1" as="geometry">
            <mxPoint x="310" y="240" as="sourcePoint" />
            <mxPoint x="310" y="220" as="targetPoint" />
          </mxGeometry>
        </mxCell>
        <mxCell id="s1_Y5GCPixIF_iL36CFM-14" value="20,000" style="text;html=1;strokeColor=none;fillColor=none;align=center;verticalAlign=middle;whiteSpace=wrap;rounded=0;" parent="1" vertex="1">
          <mxGeometry x="50" y="180" width="40" height="20" as="geometry" />
        </mxCell>
        <mxCell id="s1_Y5GCPixIF_iL36CFM-15" value="2,000" style="text;html=1;strokeColor=none;fillColor=none;align=center;verticalAlign=middle;whiteSpace=wrap;rounded=0;" parent="1" vertex="1">
          <mxGeometry x="170" y="190" width="40" height="20" as="geometry" />
        </mxCell>
        <mxCell id="s1_Y5GCPixIF_iL36CFM-16" value="time" style="text;html=1;strokeColor=none;fillColor=none;align=center;verticalAlign=middle;whiteSpace=wrap;rounded=0;" parent="1" vertex="1">
          <mxGeometry x="340" y="230" width="40" height="20" as="geometry" />
        </mxCell>
        <mxCell id="s1_Y5GCPixIF_iL36CFM-17" value="current" style="text;html=1;strokeColor=none;fillColor=none;align=center;verticalAlign=middle;whiteSpace=wrap;rounded=0;" parent="1" vertex="1">
          <mxGeometry x="12" y="239" width="40" height="20" as="geometry" />
        </mxCell>
        <mxCell id="s1_Y5GCPixIF_iL36CFM-18" value="1" style="text;html=1;strokeColor=none;fillColor=none;align=center;verticalAlign=middle;whiteSpace=wrap;rounded=0;" parent="1" vertex="1">
          <mxGeometry x="50" y="239" width="40" height="20" as="geometry" />
        </mxCell>
        <mxCell id="s1_Y5GCPixIF_iL36CFM-20" value="" style="endArrow=classic;html=1;" parent="1" edge="1">
          <mxGeometry width="50" height="50" relative="1" as="geometry">
            <mxPoint x="30" y="366" as="sourcePoint" />
            <mxPoint x="340" y="366" as="targetPoint" />
          </mxGeometry>
        </mxCell>
        <mxCell id="s1_Y5GCPixIF_iL36CFM-32" value="54,000" style="text;html=1;strokeColor=none;fillColor=none;align=center;verticalAlign=middle;whiteSpace=wrap;rounded=0;" parent="1" vertex="1">
          <mxGeometry x="52" y="296" width="40" height="20" as="geometry" />
        </mxCell>
        <mxCell id="s1_Y5GCPixIF_iL36CFM-34" value="time" style="text;html=1;strokeColor=none;fillColor=none;align=center;verticalAlign=middle;whiteSpace=wrap;rounded=0;" parent="1" vertex="1">
          <mxGeometry x="340" y="356" width="40" height="20" as="geometry" />
        </mxCell>
        <mxCell id="s1_Y5GCPixIF_iL36CFM-35" value="current" style="text;html=1;strokeColor=none;fillColor=none;align=center;verticalAlign=middle;whiteSpace=wrap;rounded=0;" parent="1" vertex="1">
          <mxGeometry x="12" y="365" width="40" height="20" as="geometry" />
        </mxCell>
        <mxCell id="s1_Y5GCPixIF_iL36CFM-36" value="1" style="text;html=1;strokeColor=none;fillColor=none;align=center;verticalAlign=middle;whiteSpace=wrap;rounded=0;" parent="1" vertex="1">
          <mxGeometry x="50" y="365" width="40" height="20" as="geometry" />
        </mxCell>
        <mxCell id="s1_Y5GCPixIF_iL36CFM-39" value="" style="endArrow=classic;html=1;" parent="1" edge="1">
          <mxGeometry width="50" height="50" relative="1" as="geometry">
            <mxPoint x="310" y="365" as="sourcePoint" />
            <mxPoint x="310" y="319" as="targetPoint" />
          </mxGeometry>
        </mxCell>
        <mxCell id="s1_Y5GCPixIF_iL36CFM-40" value="" style="endArrow=classic;html=1;" parent="1" edge="1">
          <mxGeometry width="50" height="50" relative="1" as="geometry">
            <mxPoint x="280" y="365" as="sourcePoint" />
            <mxPoint x="280" y="319" as="targetPoint" />
          </mxGeometry>
        </mxCell>
        <mxCell id="s1_Y5GCPixIF_iL36CFM-41" value="" style="endArrow=classic;html=1;" parent="1" edge="1">
          <mxGeometry width="50" height="50" relative="1" as="geometry">
            <mxPoint x="250" y="365" as="sourcePoint" />
            <mxPoint x="250" y="319" as="targetPoint" />
          </mxGeometry>
        </mxCell>
        <mxCell id="s1_Y5GCPixIF_iL36CFM-42" value="" style="endArrow=classic;html=1;" parent="1" edge="1">
          <mxGeometry width="50" height="50" relative="1" as="geometry">
            <mxPoint x="220" y="365" as="sourcePoint" />
            <mxPoint x="220" y="319" as="targetPoint" />
          </mxGeometry>
        </mxCell>
        <mxCell id="s1_Y5GCPixIF_iL36CFM-43" value="" style="endArrow=classic;html=1;" parent="1" edge="1">
          <mxGeometry width="50" height="50" relative="1" as="geometry">
            <mxPoint x="189.76" y="365" as="sourcePoint" />
            <mxPoint x="189.76" y="319" as="targetPoint" />
          </mxGeometry>
        </mxCell>
        <mxCell id="s1_Y5GCPixIF_iL36CFM-44" value="" style="endArrow=classic;html=1;" parent="1" edge="1">
          <mxGeometry width="50" height="50" relative="1" as="geometry">
            <mxPoint x="160" y="365" as="sourcePoint" />
            <mxPoint x="160" y="319" as="targetPoint" />
          </mxGeometry>
        </mxCell>
        <mxCell id="s1_Y5GCPixIF_iL36CFM-45" value="" style="endArrow=classic;html=1;" parent="1" edge="1">
          <mxGeometry width="50" height="50" relative="1" as="geometry">
            <mxPoint x="130" y="365" as="sourcePoint" />
            <mxPoint x="130" y="319" as="targetPoint" />
          </mxGeometry>
        </mxCell>
        <mxCell id="s1_Y5GCPixIF_iL36CFM-46" value="" style="endArrow=classic;html=1;" parent="1" edge="1">
          <mxGeometry width="50" height="50" relative="1" as="geometry">
            <mxPoint x="100" y="365" as="sourcePoint" />
            <mxPoint x="100" y="319" as="targetPoint" />
          </mxGeometry>
        </mxCell>
        <mxCell id="s1_Y5GCPixIF_iL36CFM-47" value="" style="endArrow=classic;html=1;" parent="1" edge="1">
          <mxGeometry width="50" height="50" relative="1" as="geometry">
            <mxPoint x="69.76" y="365" as="sourcePoint" />
            <mxPoint x="69.76" y="319" as="targetPoint" />
          </mxGeometry>
        </mxCell>
        <mxCell id="s1_Y5GCPixIF_iL36CFM-48" value="" style="endArrow=classic;html=1;" parent="1" edge="1">
          <mxGeometry width="50" height="50" relative="1" as="geometry">
            <mxPoint x="39.999999999999986" y="365" as="sourcePoint" />
            <mxPoint x="39.999999999999986" y="319" as="targetPoint" />
          </mxGeometry>
        </mxCell>
        <mxCell id="s1_Y5GCPixIF_iL36CFM-49" value="9" style="text;html=1;strokeColor=none;fillColor=none;align=center;verticalAlign=middle;whiteSpace=wrap;rounded=0;" parent="1" vertex="1">
          <mxGeometry x="290" y="239" width="40" height="20" as="geometry" />
        </mxCell>
        <mxCell id="s1_Y5GCPixIF_iL36CFM-50" value="9" style="text;html=1;strokeColor=none;fillColor=none;align=center;verticalAlign=middle;whiteSpace=wrap;rounded=0;" parent="1" vertex="1">
          <mxGeometry x="290" y="365" width="40" height="20" as="geometry" />
        </mxCell>
      </root>
    </mxGraphModel>
  </diagram>
</mxfile>
